<svg width="44" height="30" viewBox="0 0 44 30" fill="none" xmlns="http://www.w3.org/2000/svg">
<rect x="0.5" y="0.5" width="43" height="29" rx="3.5" fill="#FAFAFA"/>
<rect x="0.5" y="0.5" width="43" height="29" rx="3.5" stroke="#FAFAFA"/>
<path d="M27.9358 5.625C32.9892 5.62522 37.0862 9.74602 37.0862 14.8291C37.0861 19.9121 32.9892 24.033 27.9358 24.0332C25.67 24.0332 23.5974 23.2031 21.9993 21.8311C20.4013 23.2027 18.3301 24.0332 16.0647 24.0332C11.0111 24.0332 6.91437 19.9123 6.91431 14.8291C6.91431 9.74588 11.0111 5.625 16.0647 5.625C18.3299 5.62501 20.4013 6.45474 21.9993 7.82617C23.5973 6.45429 25.6702 5.625 27.9358 5.625Z" fill="#ED0006"/>
<path d="M27.9355 5.625C32.9891 5.6251 37.0859 9.74595 37.0859 14.8291C37.0859 19.9122 32.989 24.0331 27.9355 24.0332C25.6697 24.0332 23.5981 23.2022 22 21.8301C23.9662 20.1419 25.2148 17.6332 25.2148 14.8291C25.2148 12.0246 23.9667 9.51434 22 7.82617C23.598 6.45451 25.6701 5.625 27.9355 5.625Z" fill="#F9A000"/>
<path d="M22 7.82642C23.9667 9.51459 25.2148 12.0249 25.2148 14.8293C25.2148 17.6334 23.9663 20.1422 22 21.8303C20.0338 20.1422 18.7852 17.6333 18.7852 14.8293C18.7852 12.0249 20.0333 9.51459 22 7.82642Z" fill="#FF5E00"/>
</svg>
